<?xml version="1.0" encoding="utf-8"?>
<!-- Generator: Adobe Illustrator 17.0.0, SVG Export Plug-In . SVG Version: 6.00 Build 0)  -->
<!DOCTYPE svg PUBLIC "-//W3C//DTD SVG 1.1//EN" "http://www.w3.org/Graphics/SVG/1.1/DTD/svg11.dtd">
<svg version="1.1" id="Layer_1" xmlns="http://www.w3.org/2000/svg" xmlns:xlink="http://www.w3.org/1999/xlink" x="0px" y="0px"
	 width="100px" height="100px" viewBox="0 0 100 100" enable-background="new 0 0 100 100" xml:space="preserve">
<g id="Page-1_1_">
	<g id="icon-105-folder-add_1_">
		<linearGradient id="folder-add_2_" gradientUnits="userSpaceOnUse" x1="4.0478" y1="49.7161" x2="95.7241" y2="49.7161">
			<stop  offset="0" style="stop-color:#D277FE"/>
			<stop  offset="1" style="stop-color:#EA8ECC"/>
		</linearGradient>
		<path id="folder-add_1_" fill="url(#folder-add_2_)" d="M81.4,66.905v-8.595h-2.865v8.595H69.94v2.865h8.595v8.595H81.4V69.77
			h8.595v-2.865H81.4z M81.4,66.905v-8.595h-2.865v8.595H69.94v2.865h8.595v8.595H81.4V69.77h8.595v-2.865H81.4z M81.4,66.905
			v-8.595h-2.865v8.595H69.94v2.865h8.595v8.595H81.4V69.77h8.595v-2.865H81.4z M87.129,54.3V32.527c0-3.18-2.578-5.73-5.758-5.73
			h-34.35l-5.73-11.46H9.778c-3.151,0-5.73,2.55-5.73,5.701v51.625c0,3.151,2.578,5.701,5.701,5.701H67.82
			c2.894,3.495,7.248,5.73,12.147,5.73c8.709,0,15.757-7.048,15.757-15.757C95.724,62.207,92.229,56.907,87.129,54.3z M6.913,21.039
			c0-1.518,1.261-2.836,2.836-2.836h29.824l5.615,11.46H81.4c1.576,0,2.865,1.289,2.865,2.865v5.73H6.913V21.039z M9.749,75.5
			c-1.547,0-2.836-1.261-2.836-2.836V41.121h77.352v12.061c-1.375-0.401-2.808-0.602-4.297-0.602
			c-8.709,0-15.757,7.048-15.757,15.757c0,2.578,0.63,5.014,1.719,7.162H9.749z M79.967,81.23c-7.134,0-12.892-5.758-12.892-12.892
			s5.758-12.892,12.892-12.892c7.134,0,12.892,5.758,12.892,12.892S87.101,81.23,79.967,81.23z M81.4,66.905v-8.595h-2.865v8.595
			H69.94v2.865h8.595v8.595H81.4V69.77h8.595v-2.865H81.4z M81.4,66.905v-8.595h-2.865v8.595H69.94v2.865h8.595v8.595H81.4V69.77
			h8.595v-2.865H81.4z M81.4,66.905v-8.595h-2.865v8.595H69.94v2.865h8.595v8.595H81.4V69.77h8.595v-2.865H81.4z M81.4,66.905
			v-8.595h-2.865v8.595H69.94v2.865h8.595v8.595H81.4V69.77h8.595v-2.865H81.4z"/>
	</g>
</g>
</svg>
