<?xml version="1.0" encoding="utf-8"?>
<!-- Generator: Adobe Illustrator 17.0.0, SVG Export Plug-In . SVG Version: 6.00 Build 0)  -->
<!DOCTYPE svg PUBLIC "-//W3C//DTD SVG 1.1//EN" "http://www.w3.org/Graphics/SVG/1.1/DTD/svg11.dtd">
<svg version="1.1" id="Layer_1" xmlns="http://www.w3.org/2000/svg" xmlns:xlink="http://www.w3.org/1999/xlink" x="0px" y="0px"
	 width="142px" height="148px" viewBox="0 0 142 148" enable-background="new 0 0 142 148" xml:space="preserve">
<g>
	<linearGradient id="SVGID_1_" gradientUnits="userSpaceOnUse" x1="53.641" y1="113.1995" x2="88.6387" y2="113.1995">
		<stop  offset="0" style="stop-color:#EA8ECC"/>
		<stop  offset="1" style="stop-color:#FA8E8F"/>
	</linearGradient>
	<path fill="url(#SVGID_1_)" d="M82.526,143.862c0,0-5.45-22.685-2.086-36.656c3.364-13.971,8.688-16.905,8.163-19.036
		c-0.524-2.13-3.216-1.129-4.077,0.842c-0.861,1.97-4.384,6.219-7.621,5.535c-3.237-0.685-4.108-13.977-6.476-15.305
		c-2.368-1.328-1.546,4.815-0.627,10.14c0.919,5.326-3.615,2.361-6.443-4.026c-2.828-6.387-4.482-4.516-4.794-3.612
		c-0.313,0.904,6.216,12.298,5.734,12.844c-0.483,0.546-8.662-8.902-9.456-8.632c-0.795,0.27-2.15,1.017-0.196,3.993
		c1.954,2.976,8.088,7.979,7.697,8.815c-0.391,0.836-5.465-3.717-7.315-3.824c-1.85-0.107-1.099,2.501,2.219,4.877
		c3.318,2.376,11.441,4.97,11.701,13.95c0.26,8.979-2.076,30.061-2.076,30.061S72.641,151.713,82.526,143.862z"/>
	
		<linearGradient id="SVGID_2_" gradientUnits="userSpaceOnUse" x1="89.6506" y1="21.1521" x2="107.1245" y2="112.266" gradientTransform="matrix(0.9656 0.26 -0.26 0.9656 9.6795 -31.9846)">
		<stop  offset="0" style="stop-color:#57C3FF"/>
		<stop  offset="1" style="stop-color:#2CE7C7"/>
	</linearGradient>
	<path fill="url(#SVGID_2_)" d="M77.25,83.685c0,0-20.814-30.616,14.524-63.621c0,0,32.351,38.092-9.045,63.97
		c0,0,0.98-24.561,5.625-34.567C88.353,49.466,75.907,71.234,77.25,83.685z"/>
	
		<linearGradient id="SVGID_3_" gradientUnits="userSpaceOnUse" x1="99.1249" y1="38.4418" x2="115.1577" y2="122.0418" gradientTransform="matrix(0.9889 0.1485 -0.1485 0.9889 21.4172 -38.9238)">
		<stop  offset="0" style="stop-color:#57C3FF"/>
		<stop  offset="1" style="stop-color:#2CE7C7"/>
	</linearGradient>
	<path fill="url(#SVGID_3_)" d="M91.31,86.636c0,0,12.783-26.928,50.098-15.824c0,0-13.275,37.982-48.11,19.767
		c0,0,17.46-9.315,26.298-10.167C119.596,80.411,99.402,80.637,91.31,86.636z"/>
	
		<linearGradient id="SVGID_4_" gradientUnits="userSpaceOnUse" x1="-3.716" y1="26.1904" x2="12.317" y2="109.7914" gradientTransform="matrix(0.9995 -0.0303 0.0303 0.9995 18.8511 5.3288)">
		<stop  offset="0" style="stop-color:#57C3FF"/>
		<stop  offset="1" style="stop-color:#2CE7C7"/>
	</linearGradient>
	<path fill="url(#SVGID_4_)" d="M52.427,87.17c0,0-24.59,17.287-51.834-10.982c0,0,30.513-26.748,52.049,6.531
		c0,0-19.952-0.484-28.135-4.127C24.506,78.592,42.336,88.419,52.427,87.17z"/>
	
		<linearGradient id="SVGID_5_" gradientUnits="userSpaceOnUse" x1="38.0846" y1="42.1457" x2="58.5394" y2="148.8028" gradientTransform="matrix(0.9705 -0.2409 0.2409 0.9705 -15.7271 -20.4616)">
		<stop  offset="0" style="stop-color:#57C3FF"/>
		<stop  offset="1" style="stop-color:#2CE7C7"/>
	</linearGradient>
	<path fill="url(#SVGID_5_)" d="M58.6,79.048c0,0-31.852-10.859-24.218-54.143c0,0,44.313,9.983,28.383,51.403
		c0,0-12.702-18.378-14.8-28.181C47.966,48.128,50.828,70.747,58.6,79.048z"/>
	
		<linearGradient id="SVGID_6_" gradientUnits="userSpaceOnUse" x1="84.4027" y1="-63.2731" x2="95.1934" y2="-7.0077" gradientTransform="matrix(0.9432 -0.3323 0.3323 0.9432 40.329 99.1203)">
		<stop  offset="0" style="stop-color:#57C3FF"/>
		<stop  offset="1" style="stop-color:#2CE7C7"/>
	</linearGradient>
	<path fill="url(#SVGID_6_)" d="M108.552,61.766c0,0-0.894-20.043,24.795-25.211c0,0,4.088,26.77-22.369,26.929
		c0,0,7.443-11.046,12.429-14.341C123.406,49.142,111.471,55.647,108.552,61.766z"/>
	
		<linearGradient id="SVGID_7_" gradientUnits="userSpaceOnUse" x1="55.9126" y1="120.3819" x2="66.0202" y2="173.0858" gradientTransform="matrix(0.9104 0.4137 -0.4137 0.9104 23.3621 -111.7343)">
		<stop  offset="0" style="stop-color:#57C3FF"/>
		<stop  offset="1" style="stop-color:#2CE7C7"/>
	</linearGradient>
	<path fill="url(#SVGID_7_)" d="M29.664,62.572c0,0-18.721,2.943-26.275-20.628c0,0,24.703-6.65,27.634,18.168
		c0,0-11.155-5.822-14.772-10.159C16.252,49.954,23.608,60.473,29.664,62.572z"/>
	
		<linearGradient id="SVGID_8_" gradientUnits="userSpaceOnUse" x1="102.8346" y1="122.9871" x2="116.016" y2="191.7189" gradientTransform="matrix(0.97 0.243 -0.243 0.97 1.4465 -152.4596)">
		<stop  offset="0" style="stop-color:#57C3FF"/>
		<stop  offset="1" style="stop-color:#2CE7C7"/>
	</linearGradient>
	<path fill="url(#SVGID_8_)" d="M66.284,38.627c0,0-14.838-15.816,2.602-38.134c0,0,22.193,19.088,0.597,37.836
		c0,0-1.666-14.3,0.106-20.512C69.589,17.816,64.374,31.553,66.284,38.627z"/>
	
		<linearGradient id="SVGID_9_" gradientUnits="userSpaceOnUse" x1="89.0011" y1="123.1059" x2="99.7924" y2="179.3748" gradientTransform="matrix(0.5749 0.8182 -0.8182 0.5749 187.6711 -67.5493)">
		<stop  offset="0" style="stop-color:#57C3FF"/>
		<stop  offset="1" style="stop-color:#2CE7C7"/>
	</linearGradient>
	<path fill="url(#SVGID_9_)" d="M92.222,98.945c0,0,19.054-6.28,30.976,17.054c0,0-24.668,11.174-31.974-14.255
		c0,0,12.647,4.179,17.167,8.088C108.392,109.833,98.902,100.1,92.222,98.945z"/>
	
		<linearGradient id="SVGID_10_" gradientUnits="userSpaceOnUse" x1="-61.8172" y1="-102.8814" x2="-50.5781" y2="-44.2773" gradientTransform="matrix(0.8091 -0.5876 0.5876 0.8091 120.7337 131.7084)">
		<stop  offset="0" style="stop-color:#57C3FF"/>
		<stop  offset="1" style="stop-color:#2CE7C7"/>
	</linearGradient>
	<path fill="url(#SVGID_10_)" d="M53.329,102.578c0,0-7.427,19.719-34.368,14.09c0,0,7.126-27.539,32.735-16.754
		c0,0-11.752,7.593-17.931,8.71C33.766,108.624,47.975,107.283,53.329,102.578z"/>
</g>
</svg>
