<?xml version="1.0" encoding="utf-8"?>
<!-- Generator: Adobe Illustrator 17.0.0, SVG Export Plug-In . SVG Version: 6.00 Build 0)  -->
<!DOCTYPE svg PUBLIC "-//W3C//DTD SVG 1.1//EN" "http://www.w3.org/Graphics/SVG/1.1/DTD/svg11.dtd">
<svg version="1.1" id="Layer_1" xmlns="http://www.w3.org/2000/svg" xmlns:xlink="http://www.w3.org/1999/xlink" x="0px" y="0px"
	 width="30px" height="42px" viewBox="0 0 30 42" enable-background="new 0 0 30 42" xml:space="preserve">
<g>
	<linearGradient id="SVGID_1_" gradientUnits="userSpaceOnUse" x1="2.3427" y1="21" x2="27.1807" y2="21">
		<stop  offset="0" style="stop-color:#57C3FF"/>
		<stop  offset="1" style="stop-color:#2CE7C7"/>
	</linearGradient>
	<path fill="url(#SVGID_1_)" d="M14.799,0.565L14.762,0.5l-0.035,0.065L3.578,23.57c0,0-1.272,2.387-1.234,5.431
		c0,0.027-0.002,0.054-0.002,0.081c0,6.858,5.56,12.418,12.418,12.418c6.817,0,12.349-5.494,12.415-12.296
		c0.102-3.14-1.227-5.633-1.227-5.633L14.799,0.565z M24.689,29.517c-0.052,5.44-4.476,9.834-9.928,9.834
		c-5.485,0-9.931-4.446-9.931-9.931c0-0.022,0.001-0.043,0.002-0.065c-0.031-2.434,0.987-4.343,0.987-4.343l8.916-18.398
		l0.028-0.052l0.03,0.052l8.916,18.398C23.708,25.011,24.77,27.006,24.689,29.517z"/>
	<linearGradient id="SVGID_2_" gradientUnits="userSpaceOnUse" x1="6.3135" y1="30.9306" x2="23.2098" y2="30.9306">
		<stop  offset="0" style="stop-color:#57C3FF"/>
		<stop  offset="1" style="stop-color:#2CE7C7"/>
	</linearGradient>
	<path fill="url(#SVGID_2_)" d="M17.526,31.08c-2.672-1.482-5.882-8.844-9.519-6.988l-0.85,1.755c0,0-0.867,1.627-0.841,3.702
		c0,0.018-0.001,0.037-0.001,0.055c0,4.675,3.79,8.464,8.464,8.464c4.441,0,8.08-3.422,8.432-7.773
		C21.423,31.388,19.665,32.266,17.526,31.08z"/>
	<linearGradient id="SVGID_3_" gradientUnits="userSpaceOnUse" x1="21.3054" y1="28.3089" x2="23.2098" y2="28.3089">
		<stop  offset="0" style="stop-color:#57C3FF"/>
		<stop  offset="1" style="stop-color:#2CE7C7"/>
	</linearGradient>
	<circle fill="url(#SVGID_3_)" cx="22.258" cy="28.309" r="0.952"/>
</g>
</svg>
